# xmcd
#
# Track frame offsets: 
#        150
#        18129
#        36087
#        52983
#        74151
#        104754
#        121793
#        147776
#        166478
#        184443
#        205640
#        227476
#        247988
#        270990
#
# Disc length: 3876 seconds
#
# Revision: 0
# Processed by: cddbd v1.5.2PL0 Copyright (c) Steve Scherf et al.
# Submitted via: ExactAudioCopyFreeDBPlugin 1.0
#
DISCID=be0f220e
DTITLE=捷奏 - DTS捷奏CAV试音碟
DYEAR=2005
DGENRE=DTS
TTITLE0=爱你在心口难开
TTITLE1=红梅花儿开
TTITLE2=花儿为什么这样红
TTITLE3=江南
TTITLE4=蕉窗雨夜
TTITLE5=绿岛小夜曲
TTITLE6=美丽的金孔雀
TTITLE7=牧歌
TTITLE8=桑塔露琪亚
TTITLE9=我从草原来
TTITLE10=我只是愿为你守约
TTITLE11=月园花好
TTITLE12=再回首
TTITLE13=在那遥远的地方
EXTD=
EXTT0=
EXTT1=
EXTT2=
EXTT3=
EXTT4=
EXTT5=
EXTT6=
EXTT7=
EXTT8=
EXTT9=
EXTT10=
EXTT11=
EXTT12=
EXTT13=
PLAYORDER=
